<?xml version="1.0" encoding="UTF-8"?>
<svg version="1.1" xmlns="http://www.w3.org/2000/svg" width="1024" height="1024">
<path d="M0 0 C1.86718869 0.53391959 3.7348245 1.06644429 5.60667419 1.58378601 C9.41543197 2.64272181 13.20572968 3.76549622 17 4.875 C18.66017373 5.35821112 20.32041267 5.84119828 21.98071289 6.32397461 C27.32175601 7.87827464 32.66099012 9.43873249 38 11 C39.89046125 11.55257499 41.7809235 12.10514657 43.67138672 12.65771484 C51.02572719 14.8077996 58.37979176 16.95881878 65.73242188 19.11474609 C66.56862564 19.35989456 67.40482941 19.60504303 68.26637268 19.85762024 C69.81977335 20.31311381 71.37311308 20.76881531 72.92637634 21.22477722 C77.27923967 22.50120952 81.63698759 23.75868419 86 25 C87.09164492 28.54465006 87.1395826 31.84976827 87.16113281 35.54663086 C87.16609772 36.19623276 87.17106262 36.84583466 87.17617798 37.51512146 C87.19077549 39.66503986 87.19760585 41.8148839 87.203125 43.96484375 C87.20736607 45.07844363 87.20736607 45.07844363 87.21169281 46.21454048 C87.22669354 50.16150389 87.23591103 54.10843083 87.24023438 58.05541992 C87.24458177 61.27982128 87.25832457 64.50394942 87.28125 67.72827148 C87.57085039 109.29342686 82.37387698 144.673167 52.5625 175.875 C37.39587628 190.1883291 19.75974134 201.09279918 1 210 C0.04480469 210.6084375 -0.91039062 211.216875 -1.89453125 211.84375 C-7.25563727 213.83983476 -11.53803184 212.06621387 -16.63378906 209.859375 C-19.50408109 208.47266198 -22.31646287 207.00778799 -25.125 205.5 C-26.13618896 204.96246094 -27.14737793 204.42492187 -28.18920898 203.87109375 C-58.06183651 187.76514751 -84.83424285 163.62118733 -95.30078125 130.31054688 C-100.17214632 113.58951155 -101.15596433 97.08157113 -101.2734375 79.7421875 C-101.27876118 78.99660709 -101.28408485 78.25102669 -101.28956985 77.48285294 C-101.31600378 73.55661306 -101.33549335 69.63040211 -101.35009766 65.70410156 C-101.36355784 62.46651724 -101.39166901 59.22954525 -101.43212891 55.9921875 C-101.48129725 52.05436482 -101.50619265 48.11710589 -101.51332474 44.17898941 C-101.52003993 42.68538318 -101.53526927 41.1917898 -101.55921555 39.69836044 C-101.59070182 37.62097775 -101.59093466 35.54581849 -101.58349609 33.46826172 C-101.59158295 32.28835663 -101.5996698 31.10845154 -101.60800171 29.89279175 C-101 27 -101 27 -98.72898865 25.18544006 C-96.40546005 24.176127 -94.18104033 23.2755663 -91.75268555 22.56469727 C-90.93977554 22.3229628 -90.12686554 22.08122833 -89.2893219 21.83216858 C-88.41396286 21.57946701 -87.53860382 21.32676544 -86.63671875 21.06640625 C-85.70822617 20.79199203 -84.77973358 20.51757782 -83.82310486 20.23484802 C-80.77991846 19.33703911 -77.73393344 18.44922347 -74.6875 17.5625 C-70.42772688 16.31604333 -66.16886232 15.06650317 -61.91015625 13.81640625 C-60.83260071 13.50087799 -59.75504517 13.18534973 -58.64483643 12.86026001 C-51.50779894 10.76266125 -44.40225478 8.57931516 -37.30859375 6.33984375 C-34.60685754 5.49565274 -31.90464802 4.65299401 -29.20230103 3.8107605 C-27.49692972 3.27428933 -25.79387692 2.73038619 -24.09335327 2.17874146 C-8.00762034 -3.03321389 -8.00762034 -3.03321389 0 0 Z M-31.87890625 55.703125 C-37.28052194 61.5523884 -39.75967904 68.22630549 -40.12890625 76.13671875 C-39.67776146 86.15760143 -36.51984086 93.66284891 -29.34765625 100.59765625 C-26.57068893 103.21595119 -26.57068893 103.21595119 -23 104 C-23.2172876 105.28165039 -23.4345752 106.56330078 -23.65844727 107.88378906 C-24.46234648 112.63846341 -25.2556035 117.39486212 -26.0456543 122.15185547 C-26.38910456 124.21061024 -26.73544054 126.26888577 -27.0847168 128.32666016 C-27.58621191 131.28426859 -28.07730967 134.24344428 -28.56640625 137.203125 C-28.72468399 138.12305237 -28.88296173 139.04297974 -29.04603577 139.99078369 C-29.18625656 140.8513739 -29.32647736 141.71196411 -29.47094727 142.59863281 C-29.59752213 143.35364075 -29.72409698 144.10864868 -29.85450745 144.88653564 C-30.13282854 147.34302603 -30.13282854 147.34302603 -29 151 C-14.48 151 0.04 151 15 151 C16.13931166 146.44275337 15.54365272 142.99357271 14.75 138.47265625 C14.61303711 137.6467247 14.47607422 136.82079315 14.33496094 135.96983337 C13.74990889 132.44205034 13.14637143 128.91750616 12.54296875 125.39282227 C12.10471716 122.81642689 11.6770558 120.23842715 11.25 117.66015625 C11.11045898 116.86730728 10.97091797 116.07445831 10.82714844 115.25758362 C9.59407852 107.78989449 9.59407852 107.78989449 11 104 C12.68533473 102.84339774 14.37390162 101.69091705 16.0859375 100.57421875 C22.00895557 95.70283858 25.4428779 87.38889017 26.21484375 79.921875 C26.61687546 70.72338941 23.94255032 63.05633294 18.00390625 56.0390625 C11.41053653 49.33001962 4.21337974 46.52000766 -5 45 C-15.83955559 45 -23.94243502 48.3689155 -31.87890625 55.703125 Z " fill="#0048BF" transform="translate(179,384)"/>
<path d="M0 0 C6.93759035 -0.07649331 13.87507065 -0.12878497 20.81298828 -0.16479492 C23.16980046 -0.17981778 25.52658498 -0.20024196 27.88330078 -0.22631836 C31.28424942 -0.26298821 34.68482621 -0.27979196 38.0859375 -0.29296875 C39.12801361 -0.30845261 40.17008972 -0.32393646 41.2437439 -0.33988953 C50.47330124 -0.34198029 58.92805281 1.16992466 66.2421875 7.13671875 C70.75136253 11.91644428 73.63815546 18.3601597 74.0625 24.9375 C73.81916361 32.96760083 71.84275453 39.28913609 66 45 C64.36158508 46.04564541 62.69932845 47.05656977 61 48 C62.08667969 48.49306641 62.08667969 48.49306641 63.1953125 48.99609375 C70.21691572 52.45072253 74.80468573 55.72751052 78 63 C81.0554017 72.24841321 80.17478849 81.11089414 75.875 89.8125 C71.03340876 97.74930206 63.71130373 101.00480703 55.09234619 103.56712341 C52.60587349 104.08153915 50.3121881 104.11968978 47.77246094 104.11352539 C46.73168396 104.11344986 45.69090698 104.11337433 44.61859131 104.11329651 C43.50179993 104.10813522 42.38500854 104.10297394 41.234375 104.09765625 C39.51157318 104.09553383 39.51157318 104.09553383 37.75396729 104.09336853 C34.08595169 104.08777143 30.41799715 104.07521944 26.75 104.0625 C24.26302171 104.05748463 21.77604247 104.05292178 19.2890625 104.04882812 C13.1926875 104.03780295 7.09634811 104.02106769 1 104 C0.19527409 101.16880568 -0.12394767 98.66234655 -0.12025452 95.72259521 C-0.12162918 94.87568115 -0.12300385 94.02876709 -0.12442017 93.15618896 C-0.12082489 92.23549622 -0.11722961 91.31480347 -0.11352539 90.36621094 C-0.11367142 89.39026978 -0.11381744 88.41432861 -0.1139679 87.40881348 C-0.1132714 84.18397802 -0.10549126 80.95920037 -0.09765625 77.734375 C-0.09579114 75.49806754 -0.09436767 73.26175967 -0.09336853 71.02545166 C-0.08955071 65.14000317 -0.07972666 59.25457936 -0.06866455 53.36914062 C-0.05843466 47.36328465 -0.05386752 41.35742468 -0.04882812 35.3515625 C-0.03810376 23.56769749 -0.02103612 11.7838508 0 0 Z M20 17 C20 24.92 20 32.84 20 41 C24.4418153 42.4806051 28.67177138 41.99838119 33.3125 41.8125 C34.71918945 41.78446289 34.71918945 41.78446289 36.15429688 41.75585938 C42.03792926 41.51951896 45.47974174 40.84365909 50 37 C52.1243216 34.60157239 52.95562638 33.03168656 53.09375 29.8203125 C52.84514844 26.02913867 52.48272057 23.64917595 50.1875 20.5625 C46.11811414 17.65579581 43.40592509 16.7510008 38.359375 16.8046875 C37.39483398 16.80968262 36.43029297 16.81467773 35.43652344 16.81982422 C34.2199707 16.83803223 33.00341797 16.85624023 31.75 16.875 C27.8725 16.91625 23.995 16.9575 20 17 Z M20 58 C20 67.57 20 77.14 20 87 C24.145625 87.061875 28.29125 87.12375 32.5625 87.1875 C34.50298218 87.22846802 34.50298218 87.22846802 36.48266602 87.27026367 C44.45436217 87.32779201 49.4305038 86.71592102 55.875 81.8125 C58.60268356 78.20233059 59.28209776 75.48791894 59 71 C57.30567349 65.11969034 54.83963805 62.42807696 50 59 C46.70265354 57.90088451 44.27041255 57.8860544 40.80078125 57.90234375 C39.71192627 57.90484131 38.62307129 57.90733887 37.5012207 57.90991211 C35.42780396 57.92356812 35.42780396 57.92356812 33.3125 57.9375 C28.919375 57.958125 24.52625 57.97875 20 58 Z " fill="#0045B7" transform="translate(648,432)"/>
<path d="M0 0 C0.68900391 -0.00386719 1.37800781 -0.00773437 2.08789062 -0.01171875 C7.18580665 -0.00169335 7.18580665 -0.00169335 8.3125 1.125 C8.43557311 2.84274167 8.49036558 4.56542739 8.51782227 6.28735352 C8.53776749 7.38841934 8.55771271 8.48948517 8.57826233 9.62391663 C8.59497482 10.8218132 8.61168732 12.01970978 8.62890625 13.25390625 C8.64968735 14.47327377 8.67046844 15.6926413 8.69187927 16.94895935 C8.75750428 20.86174645 8.81631972 24.77460317 8.875 28.6875 C8.91817291 31.33268962 8.96178678 33.97787209 9.00585938 36.62304688 C9.1131988 43.12362336 9.21494067 49.62426979 9.3125 56.125 C12.9252519 53.3054641 15.78168529 50.53972504 18.625 46.9375 C22.70097178 41.85444337 26.89874085 36.91822261 31.3125 32.125 C31.74973389 31.5988208 32.18696777 31.0726416 32.63745117 30.53051758 C34.81226232 28.70565418 36.02771969 28.7511971 38.83984375 28.76171875 C40.15178711 28.76268555 40.15178711 28.76268555 41.49023438 28.76367188 C42.40095703 28.77978516 43.31167969 28.79589844 44.25 28.8125 C45.15685547 28.80927734 46.06371094 28.80605469 46.99804688 28.80273438 C51.38105216 28.83821124 54.44198687 28.90245503 58.3125 31.125 C57.81621094 31.6096875 57.31992187 32.094375 56.80859375 32.59375 C51.00653935 38.31873726 45.60206616 44.26979479 40.5 50.625 C39.778125 51.45 39.05625 52.275 38.3125 53.125 C37.6525 53.125 36.9925 53.125 36.3125 53.125 C36.065 53.681875 35.8175 54.23875 35.5625 54.8125 C34.09703391 57.52361227 32.25746381 59.74123338 30.3125 62.125 C36.79245963 71.95780048 43.34506281 81.72220973 50.21386719 91.28881836 C53.43322598 95.79335143 56.43022291 100.39772086 59.3125 105.125 C39.14011938 107.64988577 39.14011938 107.64988577 33.22509766 103.74804688 C29.76370816 100.10192881 27.53390374 95.76754543 25.37109375 91.26367188 C23.77001822 88.02902667 21.82114812 85.12362469 19.8125 82.125 C19.2040625 81.155625 18.595625 80.18625 17.96875 79.1875 C17.4221875 78.506875 16.875625 77.82625 16.3125 77.125 C13.25798159 76.82083344 13.25798159 76.82083344 11.16308594 78.77246094 C8.90395153 81.6443632 8.78012738 83.14651337 8.703125 86.765625 C8.67089844 87.83554687 8.63867188 88.90546875 8.60546875 90.0078125 C8.58419922 91.67457031 8.58419922 91.67457031 8.5625 93.375 C8.53285156 94.50164062 8.50320313 95.62828125 8.47265625 96.7890625 C8.4020225 99.56732338 8.35498981 102.3461662 8.3125 105.125 C2.0425 105.125 -4.2275 105.125 -10.6875 105.125 C-11.38039833 101.66050837 -11.81207546 99.16588582 -11.80775452 95.76530457 C-11.80912918 94.92542999 -11.81050385 94.08555542 -11.81192017 93.2202301 C-11.80832489 92.31248337 -11.80472961 91.40473663 -11.80102539 90.46948242 C-11.80117142 89.5031488 -11.80131744 88.53681519 -11.8014679 87.54119873 C-11.80077248 84.35426573 -11.7929974 81.16739152 -11.78515625 77.98046875 C-11.78329075 75.76801078 -11.78186747 73.5555524 -11.78086853 71.34309387 C-11.77705372 65.52506364 -11.76723225 59.70705844 -11.75616455 53.88903809 C-11.74592818 47.95011738 -11.74136614 42.01119262 -11.73632812 36.07226562 C-11.72560907 24.4231661 -11.70854506 12.77408513 -11.6875 1.125 C-7.77610624 0.04008786 -4.03489962 -0.02303463 0 0 Z " fill="#0046B9" transform="translate(903.6875,430.875)"/>
<path d="M0 0 C5.78245706 5.50433794 8.96205283 13.68367002 9.46044922 21.50292969 C9.50072803 23.80891731 9.51022114 26.11560614 9.4921875 28.421875 C9.51274704 30.26087372 9.51274704 30.26087372 9.53372192 32.13702393 C9.57076664 36.00839799 9.56732373 39.87847508 9.5625 43.75 C9.58064439 46.39324899 9.6014525 49.03648112 9.625 51.6796875 C9.67661289 58.12000655 9.69194699 64.5594856 9.6875 71 C3.4175 71 -2.8525 71 -9.3125 71 C-9.6425 69.35 -9.9725 67.7 -10.3125 66 C-11.06015625 66.42152344 -11.8078125 66.84304688 -12.578125 67.27734375 C-13.56296875 67.82519531 -14.5478125 68.37304688 -15.5625 68.9375 C-16.53703125 69.48277344 -17.5115625 70.02804687 -18.515625 70.58984375 C-25.53754753 74.13022648 -34.52385698 74.31653576 -42.0546875 72.24609375 C-48.64880931 69.41528388 -53.49398062 65.97135675 -56.51953125 59.33984375 C-58.71695968 52.85580617 -59.25797128 46.16391886 -56.3828125 39.84375 C-52.72494326 33.54260299 -48.30205527 29.28019918 -41.3125 27 C-31.31184573 24.67889324 -20.392815 23.68375115 -10.3125 26 C-10.71032879 24.22483971 -11.13153661 22.45490837 -11.5625 20.6875 C-11.91054688 19.20830078 -11.91054688 19.20830078 -12.265625 17.69921875 C-13.46651051 14.60290575 -14.47571454 13.64768178 -17.3125 12 C-22.32650778 10.32866407 -27.29393304 10.2269318 -32.25 12.125 C-34.86199495 14.49954087 -35.48459495 16.6131157 -36.3125 20 C-40.46876368 21.00926479 -44.35615094 21.10239579 -48.625 21.0625 C-49.87925781 21.05347656 -51.13351562 21.04445313 -52.42578125 21.03515625 C-53.37839844 21.02355469 -54.33101562 21.01195312 -55.3125 21 C-56.92950511 16.14898467 -55.53917671 11.64002162 -53.4140625 7.06640625 C-48.97952068 0.00573505 -41.364816 -3.79672556 -33.42944336 -5.62280273 C-21.54837042 -7.73977398 -10.3557419 -6.25252341 0 0 Z M-28.4375 39.3125 C-29.47132813 39.55613281 -30.50515625 39.79976563 -31.5703125 40.05078125 C-34.36217991 41.01719689 -35.59744565 41.63051702 -37.3125 44 C-38.46723014 47.55919987 -38.734747 50.85390099 -37.4375 54.375 C-33.55135851 57.34675526 -29.00221362 58.19003411 -24.15625 57.84765625 C-19.06415383 56.81944452 -15.92330966 54.69678131 -12.3125 51 C-10.22230227 47.29464947 -10.11666277 44.21050044 -10.3125 40 C-17.05161604 37.88576752 -21.59876733 37.64138112 -28.4375 39.3125 Z M-10.3125 63 C-9.3125 65 -9.3125 65 -9.3125 65 Z " fill="#0046B8" transform="translate(791.3125,465)"/>
<path d="M0 0 C0.88494141 -0.01224609 1.76988281 -0.02449219 2.68164062 -0.03710938 C3.52791016 -0.03904297 4.37417969 -0.04097656 5.24609375 -0.04296875 C6.02525146 -0.04707764 6.80440918 -0.05118652 7.60717773 -0.05541992 C9.5625 0.1875 9.5625 0.1875 11.5625 2.1875 C11.2325 2.8475 10.9025 3.5075 10.5625 4.1875 C10.45859519 5.52838457 10.41390654 6.87414827 10.40136719 8.21899414 C10.39175964 9.05068619 10.3821521 9.88237823 10.37225342 10.73927307 C10.3658786 12.09229774 10.3658786 12.09229774 10.359375 13.47265625 C10.35082489 14.86803871 10.35082489 14.86803871 10.34210205 16.29161072 C10.33264159 18.26625428 10.32611393 20.2409137 10.32226562 22.21557617 C10.31261693 25.21366722 10.28162737 28.21105599 10.25 31.20898438 C10.24346411 33.13020428 10.23821595 35.05142907 10.234375 36.97265625 C10.2220282 37.86050308 10.2096814 38.74834991 10.19696045 39.6631012 C10.21769079 45.56050096 11.03079364 50.80746534 13.5625 56.1875 C16.44347371 58.98373919 18.99029209 59.3976677 22.875 59.625 C27.56366938 59.42931263 32.10131282 58.50773386 35.5625 55.1875 C38.54989453 48.74930003 38.96836934 43.37934775 38.85546875 36.34375 C38.84910149 34.82920227 38.84910149 34.82920227 38.84260559 33.28405762 C38.82592214 30.08492443 38.78828903 26.88644017 38.75 23.6875 C38.73493982 21.50782165 38.72125375 19.32813335 38.70898438 17.1484375 C38.67605263 11.82790664 38.62595736 6.5077497 38.5625 1.1875 C41.94484386 0.47857706 45.03999557 0.05156792 48.5 0.0625 C49.31339844 0.05992187 50.12679687 0.05734375 50.96484375 0.0546875 C53.8517276 0.20228758 56.71117585 0.71227931 59.5625 1.1875 C59.5625 25.6075 59.5625 50.0275 59.5625 75.1875 C60.2225 75.5175 60.8825 75.8475 61.5625 76.1875 C54.6325 76.1875 47.7025 76.1875 40.5625 76.1875 C40.0675 72.7225 40.0675 72.7225 39.5625 69.1875 C39.0778125 69.58582031 38.593125 69.98414063 38.09375 70.39453125 C29.20243508 77.42208978 21.96563184 79.22034181 10.5625 78.1875 C5.1002037 77.08060295 0.45084428 75.2918634 -3.4375 71.1875 C-8.00481351 64.15487522 -9.55864918 58.56519788 -9.9921875 50.22265625 C-10.03423309 49.43488297 -10.07627869 48.64710968 -10.11959839 47.83546448 C-10.53697182 39.29899955 -10.58898425 30.7670663 -10.56787109 22.22192383 C-10.56238173 19.56781624 -10.56792539 16.91386896 -10.57421875 14.25976562 C-10.57355997 12.56770796 -10.57228299 10.8756504 -10.5703125 9.18359375 C-10.57233673 8.39214462 -10.57436096 7.6006955 -10.57644653 6.78526306 C-10.53989223 -1.59483909 -7.37387057 0.00534726 0 0 Z " fill="#0049C0" transform="translate(450.4375,459.8125)"/>
<path d="M0 0 C6.04931152 4.38575085 9.0247248 9.88312496 11 17 C11.50022207 21.42163423 11.46883935 25.78143109 11.390625 30.2265625 C11.38496521 31.45539154 11.37930542 32.68422058 11.37347412 33.95028687 C11.35123617 37.84226852 11.30106079 41.73330059 11.25 45.625 C11.22991886 48.27733038 11.21167093 50.9296753 11.1953125 53.58203125 C11.15141223 60.05504863 11.08247013 66.52736379 11 73 C4.73 73 -1.54 73 -8 73 C-8.03738281 69.86757813 -8.07476563 66.73515625 -8.11328125 63.5078125 C-8.15960182 60.44622138 -8.21079712 57.38474743 -8.26245117 54.32324219 C-8.29553574 52.2090579 -8.32361796 50.09478877 -8.34643555 47.98046875 C-8.38028608 44.92671841 -8.43261545 41.87373406 -8.48828125 38.8203125 C-8.49467117 37.88760529 -8.5010611 36.95489807 -8.50764465 35.993927 C-8.64603733 29.70024639 -9.49634717 23.82693444 -12 18 C-16.22547377 14.17355917 -20.65911795 14.50084637 -26.11328125 14.6484375 C-30.02167199 15.12442555 -32.18616284 16.26021119 -35 19 C-36.66974859 22.44441242 -37.25978676 25.25624572 -37.31884766 29.06567383 C-37.33871735 30.04631302 -37.35858704 31.02695221 -37.37905884 32.03730774 C-37.39638565 33.60632088 -37.39638565 33.60632088 -37.4140625 35.20703125 C-37.43342865 36.28756271 -37.4527948 37.36809418 -37.4727478 38.48136902 C-37.53242103 41.9249996 -37.57888041 45.36866383 -37.625 48.8125 C-37.66319101 51.15040502 -37.7022434 53.48829615 -37.7421875 55.82617188 C-37.83973018 61.55070802 -37.91939748 67.27510002 -38 73 C-45.26 73 -52.52 73 -60 73 C-59.01 72.505 -59.01 72.505 -58 72 C-58.01474869 71.32587067 -58.02949738 70.65174133 -58.04469299 69.95718384 C-58.19880965 62.8501915 -58.34315212 55.74304538 -58.48217773 48.63574219 C-58.53432961 45.99404903 -58.59035927 43.35252174 -58.64819336 40.7109375 C-58.96707011 26.07033526 -59.07775303 11.60954104 -58 -3 C-51.73 -3 -45.46 -3 -39 -3 C-38 1 -38 1 -38 5 C-37.38125 4.2575 -36.7625 3.515 -36.125 2.75 C-26.65412695 -6.53568838 -10.96417285 -6.50515185 0 0 Z " fill="#004AC3" transform="translate(870,463)"/>
<path d="M0 0 C3.93868375 3.07067999 6.3945878 7.25639208 8.1875 11.875 C8.1875 13.195 8.1875 14.515 8.1875 15.875 C8.8475 15.875 9.5075 15.875 10.1875 15.875 C9.6925 18.35 9.6925 18.35 9.1875 20.875 C3.2475 20.875 -2.6925 20.875 -8.8125 20.875 C-9.8025 18.895 -10.7925 16.915 -11.8125 14.875 C-15.73997013 11.19299675 -20.08050635 11.51909426 -25.19140625 11.4765625 C-28.24386083 11.94057199 -29.63845881 12.70095881 -31.8125 14.875 C-32.14647787 18.00086875 -32.14647787 18.00086875 -31.8125 20.875 C-25.85063269 23.27314438 -19.88724401 25.14186096 -13.64575195 26.63989258 C-4.67372983 28.81142607 2.23607521 30.73814778 8.0625 38.3125 C11.53151547 46.21414635 11.46173389 51.85775616 8.4375 59.859375 C5.34494275 66.09971374 -0.37186218 70.09470237 -6.6875 72.75 C-17.99748866 76.01776489 -32.31580036 75.01535908 -42.8125 69.875 C-48.70249418 65.93408953 -52.93075406 61.7747351 -54.8125 54.875 C-54.8125 52.565 -54.8125 50.255 -54.8125 47.875 C-48.2125 47.875 -41.6125 47.875 -34.8125 47.875 C-33.8225 50.185 -32.8325 52.495 -31.8125 54.875 C-27.98633681 57.98541442 -23.24003292 58.05478325 -18.5 57.6875 C-15.05712979 57.28213851 -13.796896 56.86459733 -10.8125 54.875 C-9.8125 51.95833333 -9.8125 51.95833333 -9.8125 48.875 C-12.10710448 45.68319722 -14.94793897 44.99391827 -18.625 43.9375 C-19.78 43.59589844 -20.935 43.25429688 -22.125 42.90234375 C-24.57542573 42.21965099 -27.03405657 41.56572879 -29.5 40.94140625 C-38.12099983 38.70254746 -45.19963752 36.27188725 -50.25 28.5625 C-53.05161372 22.87172213 -53.4715677 17.25333019 -51.6875 11.1875 C-48.68409367 3.51212826 -44.55119699 0.35040214 -37.3125 -3.14453125 C-25.92973412 -7.60870974 -10.37671505 -6.40784327 0 0 Z " fill="#0046B9" transform="translate(572.8125,464.125)"/>
<path d="M0 0 C1.10031303 0.00303635 1.10031303 0.00303635 2.22285461 0.00613403 C2.99192642 0.00438171 3.76099823 0.00262939 4.55337524 0.00082397 C7.10793787 -0.00359483 9.66243185 -0.00065646 12.21699524 0.00271606 C13.98437005 0.00204303 15.75174477 0.00107302 17.51911926 -0.00018311 C21.22815327 -0.00166012 24.93716324 0.00049458 28.64619446 0.00515747 C33.41147017 0.01085476 38.17668956 0.00757577 42.9419632 0.00158501 C46.59295581 -0.00202052 50.24393497 -0.00088206 53.89492798 0.0017128 C55.65248623 0.00238209 57.41004569 0.00155357 59.16760254 -0.00076675 C61.61964678 -0.00329314 64.07159855 0.0005471 66.52363586 0.00613403 C67.25717789 0.0041098 67.99071991 0.00208557 68.74649048 0 C73.7589826 0.02126592 73.7589826 0.02126592 74.87324524 1.13552856 C74.95956398 2.47820269 74.98030997 3.82527178 74.97090149 5.17068481 C74.9660675 6.38401489 74.9660675 6.38401489 74.96113586 7.62185669 C74.9485675 8.89706177 74.9485675 8.89706177 74.93574524 10.19802856 C74.93123352 11.05203247 74.9267218 11.90603638 74.92207336 12.78591919 C74.91024897 14.9024852 74.89231293 17.01901541 74.87324524 19.13552856 C70.78006661 19.30307003 66.68668029 19.46363681 62.5929718 19.6177063 C61.19999302 19.67112005 59.80708631 19.72644899 58.41426086 19.78372192 C56.41380922 19.86564925 54.41305774 19.94014954 52.41230774 20.01443481 C51.20783997 20.06156616 50.00337219 20.10869751 48.7624054 20.15725708 C45.87324524 20.13552856 45.87324524 20.13552856 43.87324524 19.13552856 C43.97921524 20.24761688 43.97921524 20.24761688 44.08732605 21.38217163 C44.89253983 30.63987302 45.02007497 39.83761047 45.00605774 49.11990356 C45.006733 50.71318578 45.00770488 52.30646789 45.00895691 53.89974976 C45.01041827 57.20751953 45.00832669 60.515262 45.00361633 63.82302856 C44.9978635 68.07005811 45.00124252 72.31702522 45.0071888 76.56405258 C45.01078913 79.83928913 45.00965925 83.11451064 45.007061 86.38974762 C45.00639316 87.95751198 45.00721521 89.52527769 45.00954056 91.09304047 C45.01206442 93.2683734 45.00823294 95.44360191 45.00263977 97.618927 C45.00184418 98.85656799 45.00104858 100.09420898 45.00022888 101.36935425 C44.87324524 104.13552856 44.87324524 104.13552856 43.87324524 105.13552856 C42.45754401 105.22204467 41.03765023 105.2425776 39.61933899 105.23318481 C38.76533508 105.22996216 37.91133118 105.2267395 37.03144836 105.22341919 C36.13361633 105.21504028 35.2357843 105.20666138 34.31074524 105.19802856 C33.40904602 105.19351685 32.5073468 105.18900513 31.57832336 105.18435669 C29.3432321 105.17253081 27.10827087 105.15605077 24.87324524 105.13552856 C23.58192591 101.20276704 23.74018113 97.24293047 23.75971985 93.15408325 C23.75957382 92.35370636 23.7594278 91.55332947 23.75927734 90.72869873 C23.75997294 88.08823926 23.76774884 85.44785069 23.77558899 82.80740356 C23.77745442 80.97466063 23.77887773 79.1419172 23.77987671 77.30917358 C23.78369202 72.48903015 23.79351391 67.66891692 23.80458069 62.8487854 C23.81481599 57.92874561 23.81937887 53.00870093 23.82441711 48.08865356 C23.83513705 38.4375965 23.85272589 28.78656977 23.87324524 19.13552856 C14.30324524 19.46552856 4.73324524 19.79552856 -5.12675476 20.13552856 C-5.31237976 17.02115356 -5.49800476 13.90677856 -5.68925476 10.69802856 C-5.7505658 9.71519897 -5.81187683 8.73236938 -5.87504578 7.71975708 C-5.9181488 6.95075073 -5.96125183 6.18174438 -6.00566101 5.38943481 C-6.05279236 4.59867554 -6.09992371 3.80791626 -6.14848328 2.99319458 C-6.10222112 -0.96195989 -3.24768136 0.01377856 0 0 Z " fill="#004AC3" transform="translate(312.1267547607422,430.8644714355469)"/>
<path d="M0 0 C0.74958984 0.05220703 1.49917969 0.10441406 2.27148438 0.15820312 C4.11887082 0.28763784 5.96574371 0.42436518 7.8125 0.5625 C9.06747056 4.32741167 8.91911648 7.83456475 8.875 11.75 C8.854375 14.328125 8.83375 16.90625 8.8125 19.5625 C14.4225 19.5625 20.0325 19.5625 25.8125 19.5625 C26.87135037 22.7390511 27.01299266 25.16238011 27.0625 28.5 C27.08828125 29.54027344 27.1140625 30.58054687 27.140625 31.65234375 C26.77673357 34.87971419 25.97608594 36.19963641 23.8125 38.5625 C22.8225 38.2325 21.8325 37.9025 20.8125 37.5625 C20.8125 36.9025 20.8125 36.2425 20.8125 35.5625 C19.925625 35.7275 19.03875 35.8925 18.125 36.0625 C15.27653108 36.49245757 12.68245198 36.64691035 9.8125 36.5625 C7.98895732 42.03312803 8.62780024 47.96380057 8.625 53.6875 C8.60663086 55.62882812 8.60663086 55.62882812 8.58789062 57.609375 C8.57722567 64.59136582 8.94760634 70.82529522 10.8125 77.5625 C16.67716954 78.81030203 21.06101316 78.08341217 26.8125 76.5625 C26.86629226 79.52107409 26.90607093 82.47867721 26.9375 85.4375 C26.95425781 86.27925781 26.97101562 87.12101563 26.98828125 87.98828125 C26.99794922 89.19677734 26.99794922 89.19677734 27.0078125 90.4296875 C27.02352295 91.54512939 27.02352295 91.54512939 27.03955078 92.68310547 C26.8125 94.5625 26.8125 94.5625 24.8125 96.5625 C17.49916033 99.1262775 7.94397592 98.40695928 0.8125 95.6015625 C-4.67717953 92.74950243 -8.14995032 89.48051767 -10.55267334 83.70523071 C-11.78306086 79.55230315 -11.55062439 75.33130499 -11.48046875 71.03515625 C-11.47622391 70.04623886 -11.47197906 69.05732147 -11.46760559 68.03843689 C-11.45090129 64.90033991 -11.41326415 61.76290072 -11.375 58.625 C-11.35994251 56.48894161 -11.34625597 54.35287309 -11.33398438 52.21679688 C-11.30102474 46.99844701 -11.24929936 41.78058478 -11.1875 36.5625 C-15.1475 36.5625 -19.1075 36.5625 -23.1875 36.5625 C-24.36974668 33.01575997 -24.08079634 30.58727005 -23.75 26.875 C-23.64816406 25.69550781 -23.54632812 24.51601563 -23.44140625 23.30078125 C-23.35761719 22.39714844 -23.27382813 21.49351562 -23.1875 20.5625 C-21.56335622 20.36772261 -19.93813577 20.18190542 -18.3125 20 C-17.40757812 19.89558594 -16.50265625 19.79117187 -15.5703125 19.68359375 C-13.1875 19.5625 -13.1875 19.5625 -11.1875 20.5625 C-11.1875 13.9625 -11.1875 7.3625 -11.1875 0.5625 C-7.35939179 -0.71353607 -3.95274893 -0.30033987 0 0 Z " fill="#0049C1" transform="translate(611.1875,440.4375)"/>
<path d="M0 0 C0 6.93 0 13.86 0 21 C-2.7225 20.87625 -2.7225 20.87625 -5.5 20.75 C-11.23187514 20.75676727 -15.39986692 21.4890672 -20 25 C-26.73624812 32.63441454 -25.28386521 45.57606457 -25.20581055 55.1159668 C-25.18734638 57.4569774 -25.18530283 59.7975954 -25.18554688 62.13867188 C-25.18063775 63.63281592 -25.17481209 65.12695731 -25.16796875 66.62109375 C-25.16685593 67.31794785 -25.1657431 68.01480194 -25.16459656 68.73277283 C-25.13477273 71.76291574 -24.96626568 74.10120295 -24 77 C-30.93 77 -37.86 77 -45 77 C-45.79049775 61.89200692 -46.18639921 46.8435857 -46.18530273 31.71557617 C-46.18754053 28.24972112 -46.20593562 24.78416062 -46.22460938 21.31835938 C-46.22753533 19.10416774 -46.22952545 16.88997462 -46.23046875 14.67578125 C-46.23765427 13.64471756 -46.24483978 12.61365387 -46.25224304 11.55134583 C-46.24916641 10.60152328 -46.24608978 9.65170074 -46.24291992 8.6730957 C-46.24434494 7.84010452 -46.24576996 7.00711334 -46.24723816 6.14888 C-46 4 -46 4 -44 1 C-42.12060547 0.65942383 -42.12060547 0.65942383 -39.8671875 0.70703125 C-39.06152344 0.71669922 -38.25585938 0.72636719 -37.42578125 0.73632812 C-36.58402344 0.76146484 -35.74226563 0.78660156 -34.875 0.8125 C-34.02550781 0.82603516 -33.17601562 0.83957031 -32.30078125 0.85351562 C-30.20025163 0.88891781 -28.10004707 0.94272599 -26 1 C-25.67 4.3 -25.34 7.6 -25 11 C-23.700625 9.3603125 -23.700625 9.3603125 -22.375 7.6875 C-16.00939698 0.27344472 -9.381951 0 0 0 Z " fill="#0045B8" transform="translate(432,459)"/>
<path d="M0 0 C6.04931152 4.38575085 9.0247248 9.88312496 11 17 C11.50022207 21.42163423 11.46883935 25.78143109 11.390625 30.2265625 C11.38496521 31.45539154 11.37930542 32.68422058 11.37347412 33.95028687 C11.35123617 37.84226852 11.30106079 41.73330059 11.25 45.625 C11.22991886 48.27733038 11.21167093 50.9296753 11.1953125 53.58203125 C11.15141223 60.05504863 11.08247013 66.52736379 11 73 C4.73 73 -1.54 73 -8 73 C-8.03738281 69.86757813 -8.07476563 66.73515625 -8.11328125 63.5078125 C-8.15960182 60.44622138 -8.21079712 57.38474743 -8.26245117 54.32324219 C-8.29553574 52.2090579 -8.32361796 50.09478877 -8.34643555 47.98046875 C-8.38028608 44.92671841 -8.43261545 41.87373406 -8.48828125 38.8203125 C-8.49467117 37.88760529 -8.5010611 36.95489807 -8.50764465 35.993927 C-8.64603733 29.70024639 -9.49634717 23.82693444 -12 18 C-16.22547377 14.17355917 -20.65911795 14.50084637 -26.11328125 14.6484375 C-30.02167199 15.12442555 -32.18616284 16.26021119 -35 19 C-36.66974859 22.44441242 -37.25978676 25.25624572 -37.31884766 29.06567383 C-37.33871735 30.04631302 -37.35858704 31.02695221 -37.37905884 32.03730774 C-37.39638565 33.60632088 -37.39638565 33.60632088 -37.4140625 35.20703125 C-37.43342865 36.28756271 -37.4527948 37.36809418 -37.4727478 38.48136902 C-37.53242103 41.9249996 -37.57888041 45.36866383 -37.625 48.8125 C-37.66319101 51.15040502 -37.7022434 53.48829615 -37.7421875 55.82617188 C-37.83973018 61.55070802 -37.91939748 67.27510002 -38 73 C-45.26 73 -52.52 73 -60 73 C-59.01 72.505 -59.01 72.505 -58 72 C-58.01474869 71.32587067 -58.02949738 70.65174133 -58.04469299 69.95718384 C-58.19880965 62.8501915 -58.34315212 55.74304538 -58.48217773 48.63574219 C-58.53432961 45.99404903 -58.59035927 43.35252174 -58.64819336 40.7109375 C-58.96707011 26.07033526 -59.07775303 11.60954104 -58 -3 C-51.73 -3 -45.46 -3 -39 -3 C-38 1 -38 1 -38 5 C-37.38125 4.2575 -36.7625 3.515 -36.125 2.75 C-26.65412695 -6.53568838 -10.96417285 -6.50515185 0 0 Z M-38 7 C-38 7.66 -38 8.32 -38 9 C-38.66 9 -39.32 9 -40 9 C-40 5.7 -40 2.4 -40 -1 C-45.61 -1 -51.22 -1 -57 -1 C-57 23.09 -57 47.18 -57 72 C-51.39 72 -45.78 72 -40 72 C-39.9906543 70.618125 -39.98130859 69.23625 -39.97167969 67.8125 C-39.9316566 62.66097371 -39.86586299 57.51003688 -39.79248047 52.35888672 C-39.76434228 50.13402914 -39.74309235 47.90907293 -39.72900391 45.68408203 C-39.70747568 42.47637697 -39.66077322 39.26984897 -39.609375 36.0625 C-39.60814636 35.07572266 -39.60691772 34.08894531 -39.60565186 33.07226562 C-39.47896453 27.03061291 -38.72814034 21.93085698 -35 17 C-30.46822136 13.54040779 -25.85121816 12.31722753 -20.17578125 12.62109375 C-16.27239965 13.30085679 -14.16124773 14.53422677 -11 17 C-7.63137186 22.98125564 -7.5309223 28.41824964 -7.48828125 35.18359375 C-7.47033005 36.23909927 -7.45237885 37.2946048 -7.43388367 38.38209534 C-7.37995641 41.73385698 -7.34594083 45.08547762 -7.3125 48.4375 C-7.27931147 50.7181185 -7.2448204 52.99871844 -7.20898438 55.27929688 C-7.12423975 60.85276259 -7.0573444 66.42618775 -7 72 C-1.72 72 3.56 72 9 72 C9.09919942 64.18957179 9.17162686 56.3795139 9.21972656 48.56860352 C9.23752053 45.91366314 9.2670388 43.25959468 9.30175781 40.60473633 C9.35051626 36.77934916 9.37302497 32.9545485 9.390625 29.12890625 C9.41127014 27.95042618 9.43191528 26.77194611 9.45318604 25.55775452 C9.4553704 17.45662735 8.34765765 10.98657442 3.03515625 4.66015625 C2.05869141 3.86931641 2.05869141 3.86931641 1.0625 3.0625 C0.41410156 2.51722656 -0.23429688 1.97195313 -0.90234375 1.41015625 C-12.43211451 -6.34076972 -29.33848533 -3.28554867 -38 7 Z " fill="#032977" transform="translate(870,463)"/>
<path d="M0 0 C1.10031303 0.00303635 1.10031303 0.00303635 2.22285461 0.00613403 C2.99192642 0.00438171 3.76099823 0.00262939 4.55337524 0.00082397 C7.10793787 -0.00359483 9.66243185 -0.00065646 12.21699524 0.00271606 C13.98437005 0.00204303 15.75174477 0.00107302 17.51911926 -0.00018311 C21.22815327 -0.00166012 24.93716324 0.00049458 28.64619446 0.00515747 C33.41147017 0.01085476 38.17668956 0.00757577 42.9419632 0.00158501 C46.59295581 -0.00202052 50.24393497 -0.00088206 53.89492798 0.0017128 C55.65248623 0.00238209 57.41004569 0.00155357 59.16760254 -0.00076675 C61.61964678 -0.00329314 64.07159855 0.0005471 66.52363586 0.00613403 C67.25717789 0.0041098 67.99071991 0.00208557 68.74649048 0 C73.7589826 0.02126592 73.7589826 0.02126592 74.87324524 1.13552856 C74.95956398 2.47820269 74.98030997 3.82527178 74.97090149 5.17068481 C74.9660675 6.38401489 74.9660675 6.38401489 74.96113586 7.62185669 C74.9485675 8.89706177 74.9485675 8.89706177 74.93574524 10.19802856 C74.93123352 11.05203247 74.9267218 11.90603638 74.92207336 12.78591919 C74.91024897 14.9024852 74.89231293 17.01901541 74.87324524 19.13552856 C70.78006661 19.30307003 66.68668029 19.46363681 62.5929718 19.6177063 C61.19999302 19.67112005 59.80708631 19.72644899 58.41426086 19.78372192 C56.41380922 19.86564925 54.41305774 19.94014954 52.41230774 20.01443481 C51.20783997 20.06156616 50.00337219 20.10869751 48.7624054 20.15725708 C45.87324524 20.13552856 45.87324524 20.13552856 43.87324524 19.13552856 C43.97921524 20.24761688 43.97921524 20.24761688 44.08732605 21.38217163 C44.89253983 30.63987302 45.02007497 39.83761047 45.00605774 49.11990356 C45.006733 50.71318578 45.00770488 52.30646789 45.00895691 53.89974976 C45.01041827 57.20751953 45.00832669 60.515262 45.00361633 63.82302856 C44.9978635 68.07005811 45.00124252 72.31702522 45.0071888 76.56405258 C45.01078913 79.83928913 45.00965925 83.11451064 45.007061 86.38974762 C45.00639316 87.95751198 45.00721521 89.52527769 45.00954056 91.09304047 C45.01206442 93.2683734 45.00823294 95.44360191 45.00263977 97.618927 C45.00184418 98.85656799 45.00104858 100.09420898 45.00022888 101.36935425 C44.87324524 104.13552856 44.87324524 104.13552856 43.87324524 105.13552856 C42.45754401 105.22204467 41.03765023 105.2425776 39.61933899 105.23318481 C38.76533508 105.22996216 37.91133118 105.2267395 37.03144836 105.22341919 C36.13361633 105.21504028 35.2357843 105.20666138 34.31074524 105.19802856 C33.40904602 105.19351685 32.5073468 105.18900513 31.57832336 105.18435669 C29.3432321 105.17253081 27.10827087 105.15605077 24.87324524 105.13552856 C23.58192591 101.20276704 23.74018113 97.24293047 23.75971985 93.15408325 C23.75957382 92.35370636 23.7594278 91.55332947 23.75927734 90.72869873 C23.75997294 88.08823926 23.76774884 85.44785069 23.77558899 82.80740356 C23.77745442 80.97466063 23.77887773 79.1419172 23.77987671 77.30917358 C23.78369202 72.48903015 23.79351391 67.66891692 23.80458069 62.8487854 C23.81481599 57.92874561 23.81937887 53.00870093 23.82441711 48.08865356 C23.83513705 38.4375965 23.85272589 28.78656977 23.87324524 19.13552856 C14.30324524 19.46552856 4.73324524 19.79552856 -5.12675476 20.13552856 C-5.31237976 17.02115356 -5.49800476 13.90677856 -5.68925476 10.69802856 C-5.7505658 9.71519897 -5.81187683 8.73236938 -5.87504578 7.71975708 C-5.9181488 6.95075073 -5.96125183 6.18174438 -6.00566101 5.38943481 C-6.05279236 4.59867554 -6.09992371 3.80791626 -6.14848328 2.99319458 C-6.10222112 -0.96195989 -3.24768136 0.01377856 0 0 Z M64.78315735 2.22732544 C64.04173996 2.23707901 63.30032257 2.24683258 62.53643799 2.25688171 C60.0744875 2.289285 57.61253825 2.32178161 55.15058899 2.35427856 C53.4480795 2.37670453 51.74556994 2.39912471 50.0430603 2.42153931 C45.5533287 2.48066506 41.06359815 2.53986981 36.5738678 2.59909058 C31.99592653 2.65946103 27.41798428 2.71975738 22.84004211 2.78005981 C13.85110886 2.89847654 4.8621768 3.0169835 -4.12675476 3.13552856 C-4.12675476 8.08552856 -4.12675476 13.03552856 -4.12675476 18.13552856 C5.77324524 18.13552856 15.67324524 18.13552856 25.87324524 18.13552856 C25.87324524 46.51552856 25.87324524 74.89552856 25.87324524 104.13552856 C31.48324524 104.13552856 37.09324524 104.13552856 42.87324524 104.13552856 C42.87324524 75.75552856 42.87324524 47.37552856 42.87324524 18.13552856 C52.77324524 18.13552856 62.67324524 18.13552856 72.87324524 18.13552856 C72.87324524 12.85552856 72.87324524 7.57552856 72.87324524 2.13552856 C70.17662924 2.13552856 67.47955081 2.19166617 64.78315735 2.22732544 Z " fill="#021D61" transform="translate(312.1267547607422,430.8644714355469)"/>
<path d="M0 0 C-2.49909575 0.7946154 -4.99921143 1.58574403 -7.5 2.375 C-8.19609375 2.59671875 -8.8921875 2.8184375 -9.609375 3.046875 C-10.30546875 3.26601563 -11.0015625 3.48515625 -11.71875 3.7109375 C-12.34716797 3.90993652 -12.97558594 4.10893555 -13.62304688 4.31396484 C-17.05903726 5.30565886 -20.52760141 6.14461976 -24 7 C-23.96157741 16.80747293 -23.90169878 26.61457493 -23.81609726 36.42175579 C-23.77696645 40.97804166 -23.74461273 45.53414419 -23.72900391 50.09057617 C-23.57678295 91.4775275 -18.71793957 126.28206043 12 157 C27.56814197 171.00399584 49.79726609 187.30760289 71 191 C70.67 191.66 70.34 192.32 70 193 C62.50702155 191.70757661 56.55163942 189.0844129 49.875 185.5 C48.86381104 184.96246094 47.85262207 184.42492187 46.81079102 183.87109375 C16.93816349 167.76514751 -9.83424285 143.62118733 -20.30078125 110.31054688 C-25.17214632 93.58951155 -26.15596433 77.08157113 -26.2734375 59.7421875 C-26.27876118 58.99660709 -26.28408485 58.25102669 -26.28956985 57.48285294 C-26.31600378 53.55661306 -26.33549335 49.63040211 -26.35009766 45.70410156 C-26.36355784 42.46651724 -26.39166901 39.22954525 -26.43212891 35.9921875 C-26.48129725 32.05436482 -26.50619265 28.11710589 -26.51332474 24.17898941 C-26.52003993 22.68538318 -26.53526927 21.1917898 -26.55921555 19.69836044 C-26.59070182 17.62097775 -26.59093466 15.54581849 -26.58349609 13.46826172 C-26.59158295 12.28835663 -26.5996698 11.10845154 -26.60800171 9.89279175 C-26 7 -26 7 -23.59257507 5.146698 C-19.93563817 3.52923193 -16.27350951 2.36293666 -12.4375 1.25 C-11.68275391 1.01667969 -10.92800781 0.78335937 -10.15039062 0.54296875 C-9.41884766 0.32769531 -8.68730469 0.11242187 -7.93359375 -0.109375 C-7.27415771 -0.30499023 -6.61472168 -0.50060547 -5.93530273 -0.70214844 C-3.68973901 -1.04775052 -2.14914629 -0.68078733 0 0 Z " fill="#062C79" transform="translate(104,404)"/>
<path d="M0 0 C1.23363281 0.00257813 2.46726562 0.00515625 3.73828125 0.0078125 C5.56939453 0.00394531 5.56939453 0.00394531 7.4375 0 C11.05078125 0.1328125 11.05078125 0.1328125 17.05078125 1.1328125 C17.05078125 25.5528125 17.05078125 49.9728125 17.05078125 75.1328125 C17.71078125 75.4628125 18.37078125 75.7928125 19.05078125 76.1328125 C12.12078125 76.1328125 5.19078125 76.1328125 -1.94921875 76.1328125 C-2.44421875 72.6678125 -2.44421875 72.6678125 -2.94921875 69.1328125 C-3.43390625 69.53113281 -3.91859375 69.92945313 -4.41796875 70.33984375 C-13.30928367 77.36740228 -20.54608691 79.16565431 -31.94921875 78.1328125 C-38.34389976 76.83697406 -43.55732361 74.60470462 -47.359375 69.0859375 C-50.00981612 64.68576227 -51.62566704 61.40910916 -50.94921875 56.1328125 C-50.61921875 56.1328125 -50.28921875 56.1328125 -49.94921875 56.1328125 C-49.76746094 56.72449219 -49.58570313 57.31617188 -49.3984375 57.92578125 C-47.06226833 65.26973868 -45.13892769 70.47541443 -38.01171875 74.1796875 C-33.93467273 75.44856407 -30.13830303 75.64795198 -25.88671875 75.6953125 C-25.13124756 75.70989502 -24.37577637 75.72447754 -23.59741211 75.73950195 C-17.99485173 75.63901033 -13.63414574 74.2382655 -8.94921875 71.1328125 C-6.56532959 68.69672457 -6.56532959 68.69672457 -4.94921875 66.1328125 C-3.95921875 64.6478125 -3.95921875 64.6478125 -2.94921875 63.1328125 C-2.28921875 63.1328125 -1.62921875 63.1328125 -0.94921875 63.1328125 C-0.94921875 67.0928125 -0.94921875 71.0528125 -0.94921875 75.1328125 C4.33078125 75.1328125 9.61078125 75.1328125 15.05078125 75.1328125 C15.05078125 51.0428125 15.05078125 26.9528125 15.05078125 2.1328125 C9.44078125 2.1328125 3.83078125 2.1328125 -1.94921875 2.1328125 C-1.9335083 4.22919067 -1.9335083 4.22919067 -1.91748047 6.36791992 C-1.88125247 11.55816075 -1.85830796 16.74839041 -1.83935547 21.9387207 C-1.82930431 24.18418254 -1.81566131 26.42963131 -1.79833984 28.67504883 C-1.77405294 31.90449247 -1.76272668 35.13376288 -1.75390625 38.36328125 C-1.74358368 39.36554245 -1.73326111 40.36780365 -1.72262573 41.4004364 C-1.72239914 42.81133293 -1.72239914 42.81133293 -1.72216797 44.25073242 C-1.71772675 45.07457932 -1.71328552 45.89842621 -1.70870972 46.74723816 C-1.98890162 49.5264212 -2.71810527 51.63096221 -3.94921875 54.1328125 C-4.93921875 54.6278125 -4.93921875 54.6278125 -5.94921875 55.1328125 C-5.45917358 53.48720337 -5.45917358 53.48720337 -4.95922852 51.80834961 C-3.67103805 46.62967201 -3.71475479 41.63392563 -3.7890625 36.32421875 C-3.79426407 35.31689194 -3.79946564 34.30956512 -3.80482483 33.27171326 C-3.8225292 30.07942773 -3.85372048 26.88747359 -3.88671875 23.6953125 C-3.91431395 20.4781916 -3.93898587 17.26111396 -3.957901 14.04393005 C-3.97018874 12.04735761 -3.98782182 10.05080976 -4.01121521 8.05433655 C-4.01774612 7.15927902 -4.02427704 6.2642215 -4.03100586 5.34204102 C-4.03925888 4.55120621 -4.0475119 3.7603714 -4.05601501 2.9455719 C-3.87282722 -0.16385713 -3.14855763 0.14178935 0 0 Z " fill="#042B7B" transform="translate(492.94921875,459.8671875)"/>
<path d="M0 0 C0.74958984 0.05220703 1.49917969 0.10441406 2.27148438 0.15820312 C4.11887082 0.28763784 5.96574371 0.42436518 7.8125 0.5625 C9.06747056 4.32741167 8.91911648 7.83456475 8.875 11.75 C8.854375 14.328125 8.83375 16.90625 8.8125 19.5625 C14.4225 19.5625 20.0325 19.5625 25.8125 19.5625 C26.87135037 22.7390511 27.01299266 25.16238011 27.0625 28.5 C27.08828125 29.54027344 27.1140625 30.58054687 27.140625 31.65234375 C26.77673357 34.87971419 25.97608594 36.19963641 23.8125 38.5625 C22.8225 38.2325 21.8325 37.9025 20.8125 37.5625 C20.8125 36.9025 20.8125 36.2425 20.8125 35.5625 C19.925625 35.7275 19.03875 35.8925 18.125 36.0625 C15.27653108 36.49245757 12.68245198 36.64691035 9.8125 36.5625 C7.98895732 42.03312803 8.62780024 47.96380057 8.625 53.6875 C8.60663086 55.62882812 8.60663086 55.62882812 8.58789062 57.609375 C8.57730821 64.53733231 8.66809792 70.93693877 10.8125 77.5625 C11.8025 77.8925 12.7925 78.2225 13.8125 78.5625 C12.8225 78.8925 11.8325 79.2225 10.8125 79.5625 C6.51252271 74.32774504 6.67169763 69.67118908 6.71484375 63.078125 C6.7162587 62.26253113 6.71767365 61.44693726 6.71913147 60.60662842 C6.72471697 58.00854788 6.73726679 55.41055437 6.75 52.8125 C6.75501688 51.04817833 6.75957946 49.28385531 6.76367188 47.51953125 C6.77382961 43.20046055 6.79340781 38.88157738 6.8125 34.5625 C12.7525 34.5625 18.6925 34.5625 24.8125 34.5625 C24.8125 30.2725 24.8125 25.9825 24.8125 21.5625 C18.8725 21.5625 12.9325 21.5625 6.8125 21.5625 C6.8125 15.2925 6.8125 9.0225 6.8125 2.5625 C1.2025 2.5625 -4.4075 2.5625 -10.1875 2.5625 C-10.1875 8.8325 -10.1875 15.1025 -10.1875 21.5625 C-14.1475 21.5625 -18.1075 21.5625 -22.1875 21.5625 C-22.1875 25.8525 -22.1875 30.1425 -22.1875 34.5625 C-19.4959375 34.5315625 -19.4959375 34.5315625 -16.75 34.5 C-14.89583878 34.4786878 -13.04037502 34.49023498 -11.1875 34.5625 C-10.1875 35.5625 -10.1875 35.5625 -10.06724548 37.35316467 C-10.0705764 38.52231667 -10.0705764 38.52231667 -10.07397461 39.71508789 C-10.07405014 40.59592545 -10.07412567 41.476763 -10.07420349 42.3842926 C-10.07936478 43.34157761 -10.08452606 44.29886261 -10.08984375 45.28515625 C-10.0912587 46.26036728 -10.09267365 47.23557831 -10.09413147 48.24034119 C-10.09974867 51.36859143 -10.11230407 54.49677123 -10.125 57.625 C-10.13001278 59.74023334 -10.13457607 61.85546781 -10.13867188 63.97070312 C-10.14972369 69.16799296 -10.16647854 74.36524145 -10.1875 79.5625 C-10.5175 79.5625 -10.8475 79.5625 -11.1875 79.5625 C-11.1875 65.3725 -11.1875 51.1825 -11.1875 36.5625 C-15.1475 36.5625 -19.1075 36.5625 -23.1875 36.5625 C-24.36974668 33.01575997 -24.08079634 30.58727005 -23.75 26.875 C-23.64816406 25.69550781 -23.54632812 24.51601563 -23.44140625 23.30078125 C-23.35761719 22.39714844 -23.27382813 21.49351562 -23.1875 20.5625 C-21.56335622 20.36772261 -19.93813577 20.18190542 -18.3125 20 C-17.40757812 19.89558594 -16.50265625 19.79117187 -15.5703125 19.68359375 C-13.1875 19.5625 -13.1875 19.5625 -11.1875 20.5625 C-11.1875 13.9625 -11.1875 7.3625 -11.1875 0.5625 C-7.35939179 -0.71353607 -3.95274893 -0.30033987 0 0 Z " fill="#001A5A" transform="translate(611.1875,440.4375)"/>
<path d="M0 0 C0.98226562 -0.00257813 1.96453125 -0.00515625 2.9765625 -0.0078125 C5.375 0.125 5.375 0.125 6.375 1.125 C6.49807311 2.84274167 6.55286558 4.56542739 6.58032227 6.28735352 C6.60026749 7.38841934 6.62021271 8.48948517 6.64076233 9.62391663 C6.65747482 10.8218132 6.67418732 12.01970978 6.69140625 13.25390625 C6.71218735 14.47327377 6.73296844 15.6926413 6.75437927 16.94895935 C6.82000428 20.86174645 6.87881972 24.77460317 6.9375 28.6875 C6.98067291 31.33268962 7.02428678 33.97787209 7.06835938 36.62304688 C7.1756988 43.12362336 7.27744067 49.62426979 7.375 56.125 C10.9877519 53.3054641 13.84418529 50.53972504 16.6875 46.9375 C20.76347178 41.85444337 24.96124085 36.91822261 29.375 32.125 C29.81223389 31.5988208 30.24946777 31.0726416 30.69995117 30.53051758 C32.87476232 28.70565418 34.09021969 28.7511971 36.90234375 28.76171875 C38.21428711 28.76268555 38.21428711 28.76268555 39.55273438 28.76367188 C40.46345703 28.77978516 41.37417969 28.79589844 42.3125 28.8125 C43.21935547 28.80927734 44.12621094 28.80605469 45.06054688 28.80273438 C49.72814932 28.84051482 52.06192177 28.96846088 56.375 31.125 C54.065 33.435 51.755 35.745 49.375 38.125 C49.375 37.135 49.375 36.145 49.375 35.125 C50.365 34.135 51.355 33.145 52.375 32.125 C45.445 31.795 38.515 31.465 31.375 31.125 C30.715 32.775 30.055 34.425 29.375 36.125 C27.52504133 38.31743964 25.67476279 40.37985941 23.6875 42.4375 C22.60084086 43.58786041 21.51490064 44.73890037 20.4296875 45.890625 C19.9047168 46.44427734 19.37974609 46.99792969 18.83886719 47.56835938 C14.76946529 51.89566199 10.90045051 56.3441962 7.375 61.125 C6.385 60.795 5.395 60.465 4.375 60.125 C4.375 40.985 4.375 21.845 4.375 2.125 C1.075 2.455 -2.225 2.785 -5.625 3.125 C-6.615 2.465 -7.605 1.805 -8.625 1.125 C-5.50870851 0.08623617 -3.2655571 -0.00861625 0 0 Z " fill="#012577" transform="translate(905.625,430.875)"/>
<path d="M0 0 C5.82791893 3.47216963 9.72218649 7.8349473 11.80078125 14.32421875 C12.45029703 17.40340466 12.41871602 20.18726241 12.22265625 23.32421875 C11.89265625 23.32421875 11.56265625 23.32421875 11.22265625 23.32421875 C11.05830078 22.45410156 11.05830078 22.45410156 10.890625 21.56640625 C9.1639165 13.0592083 6.55472955 7.29207249 -0.77734375 2.32421875 C-7.65839851 -1.2563655 -18.02727851 -0.87867547 -25.4921875 1.01171875 C-30.10513809 3.13668639 -32.71455469 6.36060938 -35.77734375 10.32421875 C-36.43734375 10.32421875 -37.09734375 10.32421875 -37.77734375 10.32421875 C-37.77734375 7.02421875 -37.77734375 3.72421875 -37.77734375 0.32421875 C-43.38734375 0.32421875 -48.99734375 0.32421875 -54.77734375 0.32421875 C-54.77734375 24.41421875 -54.77734375 48.50421875 -54.77734375 73.32421875 C-48.83734375 73.32421875 -42.89734375 73.32421875 -36.77734375 73.32421875 C-36.77734375 73.65421875 -36.77734375 73.98421875 -36.77734375 74.32421875 C-43.70734375 74.32421875 -50.63734375 74.32421875 -57.77734375 74.32421875 C-56.78734375 73.82921875 -56.78734375 73.82921875 -55.77734375 73.32421875 C-55.79209244 72.65008942 -55.80684113 71.97596008 -55.82203674 71.28140259 C-55.9761534 64.17441025 -56.12049587 57.06726413 -56.25952148 49.95996094 C-56.31167336 47.31826778 -56.36770302 44.67674049 -56.42553711 42.03515625 C-56.74441386 27.39455401 -56.85509678 12.93375979 -55.77734375 -1.67578125 C-49.50734375 -1.67578125 -43.23734375 -1.67578125 -36.77734375 -1.67578125 C-35.77734375 2.32421875 -35.77734375 2.32421875 -35.77734375 6.32421875 C-35.15859375 5.58171875 -34.53984375 4.83921875 -33.90234375 4.07421875 C-25.04477709 -4.61015527 -10.81259843 -5.01071635 0 0 Z " fill="#021D5F" transform="translate(867.77734375,461.67578125)"/>
<path d="M0 0 C0.66 0.33 1.32 0.66 2 1 C1.40832031 1.46148437 0.81664062 1.92296875 0.20703125 2.3984375 C-7.22675064 8.53464245 -11.66119536 14.68261221 -13 24.375 C-13.41391043 33.24271748 -11.35639683 41.42315613 -5.6953125 48.3359375 C-3.95100015 50.04809662 -2.19114136 51.26593356 -0.125 52.5625 C0.90625 53.366875 1.9375 54.17125 3 55 C3.45876705 60.25078994 2.62759931 65.28935723 1.7578125 70.453125 C1.62937958 71.23516296 1.50094666 72.01720093 1.36862183 72.82293701 C1.09738429 74.46381033 0.82326244 76.10420926 0.54638672 77.74414062 C0.12415596 80.25501928 -0.28411575 82.76790981 -0.69140625 85.28125 C-0.95749567 86.88034795 -1.22439441 88.47931148 -1.4921875 90.078125 C-1.67356766 91.20314423 -1.67356766 91.20314423 -1.85861206 92.35089111 C-2.45842058 95.84018267 -3.00668672 98.01003009 -5 101 C-4.3723272 91.15256418 -2.95890386 81.48825521 -1.4375 71.75 C-1.20079443 70.2149019 -0.96446385 68.67974594 -0.72851562 67.14453125 C-0.15665437 63.42900775 0.42023974 59.7142988 1 56 C0.3819751 55.7102832 -0.2360498 55.42056641 -0.87280273 55.12207031 C-6.76048557 52.01639026 -11.64716837 45.08968186 -14 39 C-16.29404921 29.4141515 -16.04342389 19.6164618 -11 11 C-7.80663509 6.65820919 -4.38005892 3.1409633 0 0 Z " fill="#022B7B" transform="translate(153,433)"/>
<path d="M0 0 C1.06367294 0.00222061 2.12734589 0.00444122 3.22325134 0.00672913 C5.02500572 0.00684242 5.02500572 0.00684242 6.86315918 0.00695801 C8.17042465 0.01211929 9.47769012 0.01728058 10.8245697 0.02259827 C12.16835477 0.02446253 13.51214052 0.02588639 14.85592651 0.02688599 C18.39873622 0.0307105 21.94150515 0.0405402 25.48429871 0.05158997 C29.09706572 0.06180552 32.7098393 0.06638392 36.32261658 0.07142639 C43.41573225 0.08216254 50.50882019 0.09923816 57.60191345 0.12025452 C57.60191345 0.78025452 57.60191345 1.44025452 57.60191345 2.12025452 C63.21191345 2.12025452 68.82191345 2.12025452 74.60191345 2.12025452 C74.60191345 2.45025452 74.60191345 2.78025452 74.60191345 3.12025452 C64.72730557 3.16653043 54.85272335 3.2020995 44.97802925 3.22387886 C40.39314579 3.23433018 35.80833634 3.24851387 31.22349548 3.27113342 C26.80148971 3.29281387 22.37955527 3.30481298 17.95750046 3.310009 C16.26774344 3.31371341 14.57799047 3.32094689 12.8882637 3.33171463 C10.52726456 3.34616594 8.16656276 3.34823516 5.80552673 3.3473053 C5.10206116 3.35449585 4.39859558 3.3616864 3.67381287 3.36909485 C-1.16998223 3.34835884 -1.16998223 3.34835884 -3.39808655 1.12025452 C-2.39808655 0.12025452 -2.39808655 0.12025452 0 0 Z " fill="#033592" transform="translate(309.39808654785156,430.87974548339844)"/>
<path d="M0 0 C4.19769372 0.24692316 6.52655584 0.6474352 9.9375 3.1875 C12 6 12 6 12.625 9 C11.79930566 12.96333283 10.06558569 14.44534526 7 17 C2.81275537 19.09362231 -2.44130776 18.42555567 -7 18 C-11.34137626 16.54026896 -14.71807209 14.0269316 -17 10 C-17 9.34 -17 8.68 -17 8 C-22.28 8 -27.56 8 -33 8 C-31.92264168 15.66121471 -29.49512113 19.60772873 -24 25 C-27 25 -27 25 -28.53515625 23.64453125 C-33.70897634 17.43859359 -35 14.45266331 -35 6 C-28.4 6 -21.8 6 -15 6 C-14.01 8.31 -13.02 10.62 -12 13 C-8.17383681 16.11041442 -3.42753292 16.17978325 1.3125 15.8125 C4.75537021 15.40713851 6.015604 14.98959733 9 13 C10 10.08333333 10 10.08333333 10 7 C7.93421499 3.51398779 3.60662711 2.42904093 0 1 C0 0.67 0 0.34 0 0 Z " fill="#032F81" transform="translate(553,506)"/>
<path d="M0 0 C2.62527189 -0.05382106 5.24944713 -0.09358313 7.875 -0.125 C8.62136719 -0.14175781 9.36773437 -0.15851563 10.13671875 -0.17578125 C12.09194461 -0.1933959 14.04742021 -0.10320189 16 0 C16.66 0.66 17.32 1.32 18 2 C17.67 2.66 17.34 3.32 17 4 C16.89609519 5.34088457 16.85140654 6.68664827 16.83886719 8.03149414 C16.82925964 8.86318619 16.8196521 9.69487823 16.80975342 10.55177307 C16.8033786 11.90479774 16.8033786 11.90479774 16.796875 13.28515625 C16.78832489 14.68053871 16.78832489 14.68053871 16.77960205 16.10411072 C16.77014159 18.07875428 16.76361393 20.0534137 16.75976562 22.02807617 C16.75011693 25.02616722 16.71912737 28.02355599 16.6875 31.02148438 C16.68096411 32.94270428 16.67571595 34.86392907 16.671875 36.78515625 C16.6595282 37.67300308 16.6471814 38.56084991 16.63446045 39.4756012 C16.65519079 45.37300096 17.46829364 50.61996534 20 56 C22.8623196 58.77813373 25.38978232 59.20884599 29.25 59.4375 C34.39900126 59.29038568 38.50488318 57.38039283 43 55 C41.88979557 58.33061328 41.55466643 58.64765183 38.625 60.25 C33.38375859 62.69151353 28.52491555 62.45081752 23 61 C19.53339404 59.26325109 17.49787492 57.08423724 15.85986328 53.51708984 C14.66204985 48.61768601 14.75378723 43.93858909 14.8046875 38.9140625 C14.8075174 37.85714203 14.81034729 36.80022156 14.81326294 35.71127319 C14.8244215 32.34906499 14.84951841 28.98712714 14.875 25.625 C14.88503538 23.33984761 14.89416025 21.05469102 14.90234375 18.76953125 C14.92434673 13.17958398 14.95884704 7.58983777 15 2 C10.05 2 5.1 2 0 2 C0 1.34 0 0.68 0 0 Z " fill="#02246E" transform="translate(444,460)"/>
<path d="M0 0 C0.66 0.99 1.32 1.98 2 3 C1.01 4.32 0.02 5.64 -1 7 C-1.99 6.67 -2.98 6.34 -4 6 C-4 5.34 -4 4.68 -4 4 C-4.886875 4.165 -5.77375 4.33 -6.6875 4.5 C-9.53596892 4.92995757 -12.13004802 5.08441035 -15 5 C-16.82354268 10.47062803 -16.18469976 16.40130057 -16.1875 22.125 C-16.19974609 23.41921875 -16.21199219 24.7134375 -16.22460938 26.046875 C-16.23519179 32.97483231 -16.14440208 39.37443877 -14 46 C-13.01 46.33 -12.02 46.66 -11 47 C-12.485 47.495 -12.485 47.495 -14 48 C-18.29997729 42.76524504 -18.14080237 38.10868908 -18.09765625 31.515625 C-18.0962413 30.70003113 -18.09482635 29.88443726 -18.09336853 29.04412842 C-18.08778303 26.44604788 -18.07523321 23.84805437 -18.0625 21.25 C-18.05748312 19.48567833 -18.05292054 17.72135531 -18.04882812 15.95703125 C-18.03867039 11.63796055 -18.01909219 7.31907738 -18 3 C-12.06 3 -6.12 3 0 3 C0 2.01 0 1.02 0 0 Z " fill="#042F81" transform="translate(636,472)"/>
<path d="M0 0 C0 0.33 0 0.66 0 1 C-0.55461914 1.07516846 -1.10923828 1.15033691 -1.68066406 1.2277832 C-4.20565225 1.57706796 -6.72766228 1.94458281 -9.25 2.3125 C-10.12269531 2.43044922 -10.99539063 2.54839844 -11.89453125 2.66992188 C-18.08790111 3.44490576 -18.08790111 3.44490576 -23 7 C-23.76172561 8.92263476 -23.76172561 8.92263476 -23.875 11 C-23.99488281 12.0209375 -23.99488281 12.0209375 -24.1171875 13.0625 C-24.1431693 15.33065512 -24.1431693 15.33065512 -22 18 C-16.04677302 20.53197413 -10.95013942 20.18171779 -5 18 C-1.05656105 15.51391892 0.72092262 13.47677082 2 9 C2.37593066 7.0075675 2.71979545 5.0081326 3 3 C3.33 3 3.66 3 4 3 C4.3627239 8.16881551 4.32889441 12.03199171 1.453125 16.45703125 C-2.52512235 20.68124551 -8.02614655 22.20798567 -13.6875 22.4375 C-17.69879555 22.24114288 -20.60889487 21.23316679 -24 19 C-26.4710568 15.29341479 -26.77988732 12.29750411 -26 8 C-23.73393041 4.29188612 -21.99869442 2.46747399 -18.0625 0.625 C-12.20892789 -0.68160092 -5.95468188 -0.14866057 0 0 Z " fill="#022977" transform="translate(778,502)"/>
<path d="M0 0 C0.90234375 0.00128906 1.8046875 0.00257813 2.734375 0.00390625 C7.37318684 0.06566558 9.71514769 0.23257384 14 2.375 C11.69 4.685 9.38 6.995 7 9.375 C7 8.385 7 7.395 7 6.375 C7.99 5.385 8.98 4.395 10 3.375 C3.07 3.045 -3.86 2.715 -11 2.375 C-11.66 4.025 -12.32 5.675 -13 7.375 C-14.84994401 9.56742226 -16.7001111 11.6300001 -18.6875 13.6875 C-19.77031886 14.83258907 -20.85235232 15.97842134 -21.93359375 17.125 C-22.45808105 17.67800781 -22.98256836 18.23101562 -23.52294922 18.80078125 C-26.44078823 21.91057066 -29.22363052 25.13916092 -32 28.375 C-32 24.41717714 -30.75270073 23.70775838 -28.0625 20.875 C-23.84699728 16.3403425 -19.91079139 11.6533295 -16.04296875 6.8203125 C-15.36878906 6.01335937 -14.69460938 5.20640625 -14 4.375 C-13.45988281 3.61703125 -12.91976562 2.8590625 -12.36328125 2.078125 C-8.5406988 -0.67666169 -4.58097633 -0.12434079 0 0 Z " fill="#042974" transform="translate(948,459.625)"/>
<path d="M0 0 C0.74958984 0.05220703 1.49917969 0.10441406 2.27148438 0.15820312 C4.11887082 0.28763784 5.96574371 0.42436518 7.8125 0.5625 C9.06747056 4.32741167 8.91911648 7.83456475 8.875 11.75 C8.854375 14.328125 8.83375 16.90625 8.8125 19.5625 C14.4225 19.5625 20.0325 19.5625 25.8125 19.5625 C26.84409626 22.65728879 26.78732862 24.08881393 26.375 27.25 C26.27316406 28.05824219 26.17132812 28.86648438 26.06640625 29.69921875 C25.98261719 30.31410156 25.89882813 30.92898438 25.8125 31.5625 C25.4825 31.5625 25.1525 31.5625 24.8125 31.5625 C24.8125 28.2625 24.8125 24.9625 24.8125 21.5625 C18.8725 21.5625 12.9325 21.5625 6.8125 21.5625 C6.8125 15.2925 6.8125 9.0225 6.8125 2.5625 C1.2025 2.5625 -4.4075 2.5625 -10.1875 2.5625 C-10.5175 1.9025 -10.8475 1.2425 -11.1875 0.5625 C-7.35939179 -0.71353607 -3.95274893 -0.30033987 0 0 Z " fill="#032368" transform="translate(611.1875,440.4375)"/>
<path d="M0 0 C0.05379226 2.95857409 0.09357093 5.91617721 0.125 8.875 C0.14175781 9.71675781 0.15851562 10.55851563 0.17578125 11.42578125 C0.18222656 12.23144531 0.18867187 13.03710938 0.1953125 13.8671875 C0.20578613 14.61081543 0.21625977 15.35444336 0.22705078 16.12060547 C0 18 0 18 -2 20 C-5.46033718 21.23752378 -8.91707795 21.16676381 -12.5625 21.1875 C-13.69816406 21.20167969 -14.83382812 21.21585938 -16.00390625 21.23046875 C-19 21 -19 21 -22 19 C-12.1 18.505 -12.1 18.505 -2 18 C-2 13.05 -2 8.1 -2 3 C-2.99 3.495 -2.99 3.495 -4 4 C-6.6723621 4.13415472 -9.32250488 4.04318541 -12 4 C-8.50844398 1.67229599 -4.31105413 0 0 0 Z " fill="#062E7D" transform="translate(638,517)"/>
<path d="M0 0 C2.64 0 5.28 0 8 0 C8 6.93 8 13.86 8 21 C5.2775 20.87625 5.2775 20.87625 2.5 20.75 C-4.86462522 20.73261009 -9.04135401 23.02756934 -15 27 C-13.82714184 23.35110794 -11.60928139 21.55674318 -8.28515625 19.75 C-3.6291959 18.22188993 1.16038547 18.78248923 6 19 C6 13.39 6 7.78 6 2 C3.36 2 0.72 2 -2 2 C-1.34 1.34 -0.68 0.68 0 0 Z " fill="#022777" transform="translate(424,459)"/>
<path d="M0 0 C6.89634345 0.49259596 12.7667001 1.70947356 17.765625 6.796875 C21.56095952 11.55025513 24.39888566 16.2164522 23.734375 22.51953125 C22.97778443 26.68688092 22.02754086 30.26279545 20 34 C19.67 33.34 19.34 32.68 19 32 C19.33 31.01 19.66 30.02 20 29 C20.82949565 19.76558494 20.82949565 19.76558494 18.625 10.9375 C13.74920082 5.48124854 6.93521633 3.00756262 0 1 C0 0.67 0 0.34 0 0 Z " fill="#032F84" transform="translate(560,492)"/>
<path d="M0 0 C0.33 0 0.66 0 1 0 C1.33 18.15 1.66 36.3 2 55 C2.66 55 3.32 55 4 55 C3.01 57.475 3.01 57.475 2 60 C1.01 59.67 0.02 59.34 -1 59 C-0.67 39.53 -0.34 20.06 0 0 Z " fill="#02328B" transform="translate(911,432)"/>
<path d="M0 0 C1.22278174 3.66834521 0.70900132 4.36231038 -0.9375 7.75 C-3.65053023 12.94743431 -7.11617983 16.74411989 -12 20 C-12.66 20 -13.32 20 -14 20 C-13.835 20.825 -13.67 21.65 -13.5 22.5 C-12.94103955 26.41272317 -12.93192813 30.05183173 -13 34 C-15.44959362 29.53309398 -16.74292063 25.11064079 -16 20 C-14.24728563 18.10688732 -12.40327971 16.97902434 -10.20703125 15.6328125 C-5.18736518 11.91914805 -2.70869013 5.49332484 0 0 Z " fill="#032B7B" transform="translate(204,469)"/>
<path d="M0 0 C6.41688675 -0.10349817 12.62694402 0.25492456 19 1 C18.67 1.66 18.34 2.32 18 3 C12.72 2.67 7.44 2.34 2 2 C3.07735832 9.66121471 5.50487887 13.60772873 11 19 C8 19 8 19 6.46484375 17.64453125 C1.52361924 11.71758932 -0.31060422 7.92040751 0 0 Z " fill="#03236C" transform="translate(518,512)"/>
<path d="M0 0 C0 5.94 0 11.88 0 18 C-0.66 17.67 -1.32 17.34 -2 17 C-2 11.72 -2 6.44 -2 1 C-7.94 1 -13.88 1 -20 1 C-20 0.67 -20 0.34 -20 0 C-17.22949974 -0.1946838 -14.45886998 -0.38102792 -11.6875 -0.5625 C-10.90181641 -0.61857422 -10.11613281 -0.67464844 -9.30664062 -0.73242188 C-8.1706543 -0.80493164 -8.1706543 -0.80493164 -7.01171875 -0.87890625 C-6.31522217 -0.9260376 -5.61872559 -0.97316895 -4.90112305 -1.02172852 C-3 -1 -3 -1 0 0 Z " fill="#042974" transform="translate(387,432)"/>
<path d="M0 0 C-2.71415035 2.71415035 -4.33793085 2.26077286 -8.125 2.375 C-14.18047573 2.7363212 -17.80302605 3.97630607 -23 7 C-24.32271366 7.37325253 -25.65498718 7.71745901 -27 8 C-20.33088106 -0.48796956 -9.89509033 -0.55834365 0 0 Z " fill="#043287" transform="translate(860,459)"/>
<path d="M0 0 C2.64 0 5.28 0 8 0 C8 6.93 8 13.86 8 21 C6.68 20.67 5.36 20.34 4 20 C4.99 20 5.98 20 7 20 C6.67 14.06 6.34 8.12 6 2 C3.36 2 0.72 2 -2 2 C-1.34 1.34 -0.68 0.68 0 0 Z " fill="#04338B" transform="translate(424,459)"/>
<path d="M0 0 C0.74958984 0.05220703 1.49917969 0.10441406 2.27148438 0.15820312 C4.11887082 0.28763784 5.96574371 0.42436518 7.8125 0.5625 C8.1425 1.5525 8.4725 2.5425 8.8125 3.5625 C8.1525 4.2225 7.4925 4.8825 6.8125 5.5625 C6.8125 4.5725 6.8125 3.5825 6.8125 2.5625 C1.2025 2.5625 -4.4075 2.5625 -10.1875 2.5625 C-10.5175 1.9025 -10.8475 1.2425 -11.1875 0.5625 C-7.35939179 -0.71353607 -3.95274893 -0.30033987 0 0 Z " fill="#032C7C" transform="translate(611.1875,440.4375)"/>
<path d="M0 0 C0 4.95 0 9.9 0 15 C-1.32 14.67 -2.64 14.34 -4 14 C-3.01 14 -2.02 14 -1 14 C-1.33 13.34 -1.66 12.68 -2 12 C-2.13677734 8.66263287 -2.04283944 5.3414767 -2 2 C-5.63 2 -9.26 2 -13 2 C-13 1.67 -13 1.34 -13 1 C-11.20843648 0.83222817 -9.4167455 0.66581706 -7.625 0.5 C-6.62726562 0.4071875 -5.62953125 0.314375 -4.6015625 0.21875 C-2 0 -2 0 0 0 Z " fill="#0052D1" transform="translate(636,520)"/>
<path d="M0 0 C2.62527189 -0.05382106 5.24944713 -0.09358313 7.875 -0.125 C8.62136719 -0.14175781 9.36773437 -0.15851563 10.13671875 -0.17578125 C12.09194461 -0.1933959 14.04742021 -0.10320189 16 0 C16.66 0.66 17.32 1.32 18 2 C17.67 2.66 17.34 3.32 17 4 C16.34 4 15.68 4 15 4 C15 3.34 15 2.68 15 2 C10.05 2 5.1 2 0 2 C0 1.34 0 0.68 0 0 Z " fill="#063389" transform="translate(444,460)"/>
<path d="M0 0 C0.33 0.99 0.66 1.98 1 3 C4.63 3 8.26 3 12 3 C12 3.66 12 4.32 12 5 C8.04 5 4.08 5 0 5 C-0.33 4.01 -0.66 3.02 -1 2 C-0.67 1.34 -0.34 0.68 0 0 Z " fill="#053082" transform="translate(588,472)"/>
<path d="M0 0 C0.99 0.33 1.98 0.66 3 1 C-0.63 4.63 -4.26 8.26 -8 12 C-8 8.03869629 -6.65122875 7.17085599 -4 4.3125 C-3.2575 3.50425781 -2.515 2.69601562 -1.75 1.86328125 C-1.1725 1.24839844 -0.595 0.63351562 0 0 Z " fill="#0050CE" transform="translate(937,463)"/>
<path d="M0 0 C0.66 0 1.32 0 2 0 C2.25 7.625 2.25 7.625 0 11 C0 9.35 0 7.7 0 6 C-0.99 6.495 -0.99 6.495 -2 7 C-1.125 1.125 -1.125 1.125 0 0 Z " fill="#043A9A" transform="translate(490,523)"/>
<path d="M0 0 C0 3.96130371 -1.34877125 4.82914401 -4 7.6875 C-4.7425 8.49574219 -5.485 9.30398438 -6.25 10.13671875 C-6.8275 10.75160156 -7.405 11.36648438 -8 12 C-8.66 11.67 -9.32 11.34 -10 11 C-8.52116808 9.35386588 -7.04192523 7.70810092 -5.5625 6.0625 C-4.73878906 5.14597656 -3.91507813 4.22945313 -3.06640625 3.28515625 C-1 1 -1 1 0 0 Z " fill="#004FCE" transform="translate(922,481)"/>
<path d="M0 0 C0 4.38968456 -2.12805101 5.76905739 -5 9 C-5.33 8.34 -5.66 7.68 -6 7 C-4.31525278 3.63050557 -3.1808342 2.12055614 0 0 Z " fill="#014FCC" transform="translate(745,467)"/>
<path d="M0 0 C0.33 0.66 0.66 1.32 1 2 C0.34 1.67 -0.32 1.34 -1 1 C-0.67 0.67 -0.34 0.34 0 0 Z " fill="#084FC2" transform="translate(621,478)"/>
<path d="" fill="#0C50BD" transform="translate(0,0)"/>
<path d="" fill="#0A4EBC" transform="translate(0,0)"/>
<path d="M0 0 C2 1 2 1 2 1 Z " fill="#0B52BF" transform="translate(545,520)"/>
<path d="M0 0 C2 1 2 1 2 1 Z " fill="#0651C4" transform="translate(698,493)"/>
<path d="M0 0 C2 1 2 1 2 1 Z " fill="#0951C2" transform="translate(553,488)"/>
<path d="M0 0 C2 1 2 1 2 1 Z " fill="#094FBD" transform="translate(579,486)"/>
<path d="" fill="#0A4FBC" transform="translate(0,0)"/>
<path d="" fill="#0D4EB7" transform="translate(0,0)"/>
<path d="M0 0 C2 1 2 1 2 1 Z " fill="#0A51C1" transform="translate(164,431)"/>
<path d="" fill="#104CB0" transform="translate(0,0)"/>
<path d="" fill="#0F4EB2" transform="translate(0,0)"/>
<path d="" fill="#0C4DB5" transform="translate(0,0)"/>
<path d="" fill="#114EB4" transform="translate(0,0)"/>
<path d="" fill="#104CAF" transform="translate(0,0)"/>
<path d="" fill="#1150B8" transform="translate(0,0)"/>
<path d="" fill="#0A4EB8" transform="translate(0,0)"/>
<path d="" fill="#0E4BB0" transform="translate(0,0)"/>
<path d="" fill="#0B49B4" transform="translate(0,0)"/>
<path d="" fill="#0550BC" transform="translate(0,0)"/>
<path d="" fill="#0B4BB7" transform="translate(0,0)"/>
<path d="" fill="#094EBC" transform="translate(0,0)"/>
<path d="" fill="#0B4DBB" transform="translate(0,0)"/>
<path d="" fill="#0E4EB9" transform="translate(0,0)"/>
<path d="" fill="#0A4CB5" transform="translate(0,0)"/>
<path d="" fill="#074DBF" transform="translate(0,0)"/>
<path d="" fill="#0E50B9" transform="translate(0,0)"/>
<path d="" fill="#074EBC" transform="translate(0,0)"/>
<path d="" fill="#0B4EBA" transform="translate(0,0)"/>
<path d="" fill="#0B4FBE" transform="translate(0,0)"/>
<path d="" fill="#0750C1" transform="translate(0,0)"/>
<path d="" fill="#0A4DB9" transform="translate(0,0)"/>
<path d="" fill="#094FBA" transform="translate(0,0)"/>
<path d="" fill="#0A52C2" transform="translate(0,0)"/>
<path d="" fill="#0B4FBA" transform="translate(0,0)"/>
<path d="" fill="#074EC4" transform="translate(0,0)"/>
<path d="" fill="#094BB7" transform="translate(0,0)"/>
<path d="" fill="#054DBF" transform="translate(0,0)"/>
<path d="" fill="#0850BD" transform="translate(0,0)"/>
<path d="" fill="#0851C1" transform="translate(0,0)"/>
<path d="" fill="#0A4FBC" transform="translate(0,0)"/>
<path d="" fill="#094EBA" transform="translate(0,0)"/>
<path d="" fill="#0A4DBF" transform="translate(0,0)"/>
<path d="" fill="#0550C5" transform="translate(0,0)"/>
<path d="" fill="#0B50BD" transform="translate(0,0)"/>
<path d="" fill="#0654C3" transform="translate(0,0)"/>
<path d="" fill="#094DB9" transform="translate(0,0)"/>
<path d="" fill="#0E52BE" transform="translate(0,0)"/>
<path d="" fill="#064FC1" transform="translate(0,0)"/>
<path d="" fill="#1051B8" transform="translate(0,0)"/>
<path d="" fill="#0B51BC" transform="translate(0,0)"/>
<path d="" fill="#104CB3" transform="translate(0,0)"/>
<path d="" fill="#0F4FB9" transform="translate(0,0)"/>
<path d="" fill="#104FB9" transform="translate(0,0)"/>
<path d="" fill="#114EB5" transform="translate(0,0)"/>
<path d="" fill="#0D50BC" transform="translate(0,0)"/>
<path d="" fill="#0C53B9" transform="translate(0,0)"/>
<path d="" fill="#0E4EB7" transform="translate(0,0)"/>
<path d="" fill="#094FBB" transform="translate(0,0)"/>
<path d="" fill="#0C4DB9" transform="translate(0,0)"/>
<path d="" fill="#0851C4" transform="translate(0,0)"/>
<path d="" fill="#0C4FB4" transform="translate(0,0)"/>
<path d="" fill="#0E52C1" transform="translate(0,0)"/>
<path d="" fill="#0B4FBE" transform="translate(0,0)"/>
<path d="" fill="#0850C0" transform="translate(0,0)"/>
<path d="" fill="#074DBB" transform="translate(0,0)"/>
<path d="" fill="#094EBA" transform="translate(0,0)"/>
<path d="" fill="#0C53BD" transform="translate(0,0)"/>
<path d="" fill="#1050B8" transform="translate(0,0)"/>
<path d="" fill="#0A53BF" transform="translate(0,0)"/>
<path d="" fill="#094FB9" transform="translate(0,0)"/>
</svg>
